<svg xmlns="http://www.w3.org/2000/svg" width="100%" height="100%" preserveAspectRatio="xMidYMid meet" viewBox="0 0 300 48.981781005859375" overflow="visible"><defs id="SvgjsDefs1062"></defs><g id="SvgjsG1063" transform="scale(0.8931761343336906)" opacity="1"><g id="SvgjsG1064" class="text" transform="translate(168.6300048828125, 43.08000183105469) scale(1)" light-content="false" fill="#ffffff"><path d="M-140.61 -17.13C-141.69 -18.39 -143.33 -19.34 -145.53 -19.98C-143.25 -20.98 -141.47 -22.37 -140.19 -24.15C-138.91 -25.93 -138.27 -27.94 -138.27 -30.18C-138.27 -33.06 -139.49 -35.29 -141.93 -36.87C-144.37 -38.45 -147.81 -39.24 -152.25 -39.24C-155.93 -39.24 -159.37 -38.64 -162.57 -37.44L-164.31 -29.7L-163.47 -29.22C-161.51 -29.9 -159.74 -30.4 -158.16 -30.72C-156.58 -31.04 -155.05 -31.2 -153.57 -31.2C-151.69 -31.2 -150.32 -30.96 -149.46 -30.48C-148.6 -30 -148.17 -29.2 -148.17 -28.08C-148.17 -27.04 -148.47 -26.08 -149.07 -25.2C-149.67 -24.32 -150.51 -23.62 -151.59 -23.1L-159.87 -23.22L-161.19 -16.8L-160.71 -16.08L-151.77 -16.08C-149.65 -15.44 -148.59 -14.22 -148.59 -12.42C-148.59 -10.82 -149.31 -9.55 -150.75 -8.61C-152.19 -7.67 -154.09 -7.2 -156.45 -7.2C-158.01 -7.2 -159.58 -7.41 -161.16 -7.83C-162.74 -8.25 -164.11 -8.84 -165.27 -9.6L-165.99 -9.24L-168.63 -1.5C-167.27 -0.82 -165.61 -0.29 -163.65 0.09C-161.69 0.47 -159.59 0.66 -157.35 0.66C-151.63 0.66 -147.14 -0.48 -143.88 -2.76C-140.62 -5.04 -138.99 -8.2 -138.99 -12.24C-138.99 -14.24 -139.53 -15.87 -140.61 -17.13Z M-107.37 -8.64C-108.45 -10.88 -110.01 -12.78 -112.05 -14.34C-108.69 -16.3 -107.01 -18.76 -107.01 -21.72C-107.01 -23.56 -107.59 -25.07 -108.75 -26.25C-109.91 -27.43 -111.55 -28.22 -113.67 -28.62L-114.51 -28.68C-117.59 -28.52 -120.29 -27.66 -122.61 -26.1C-124.93 -24.54 -126.73 -22.42 -128.01 -19.74C-129.29 -17.06 -129.93 -14 -129.93 -10.56C-129.93 -6.96 -129.05 -4.2 -127.29 -2.28C-125.53 -0.36 -122.99 0.6 -119.67 0.6C-116.55 0.6 -113.89 -0.18 -111.69 -1.74C-109.49 -3.3 -108.05 -5.44 -107.37 -8.16ZM-120.09 -21.21C-119.21 -22.51 -118.05 -23.16 -116.61 -23.16C-115.25 -23.16 -114.57 -22.48 -114.57 -21.12C-114.57 -19.92 -115.14 -18.87 -116.28 -17.97C-117.42 -17.07 -119.25 -16.28 -121.77 -15.6C-121.53 -18.04 -120.97 -19.91 -120.09 -21.21ZM-115.68 -6.18C-116.34 -5.58 -117.17 -5.28 -118.17 -5.28C-119.29 -5.28 -120.14 -5.71 -120.72 -6.57C-121.3 -7.43 -121.67 -8.8 -121.83 -10.68C-119.67 -11.24 -117.85 -11.8 -116.37 -12.36C-115.25 -10.92 -114.69 -9.58 -114.69 -8.34C-114.69 -7.5 -115.02 -6.78 -115.68 -6.18Z M-72.21 -23.7C-72.21 -24.94 -72.55 -26.52 -73.23 -28.44L-81.09 -27.42L-81.51 -26.52C-80.83 -25.52 -80.49 -24.28 -80.49 -22.8C-80.49 -20.84 -81.05 -18.66 -82.17 -16.26L-85.35 -9.24L-86.25 -9.24L-88.29 -23.04L-88.77 -28.32L-97.41 -27.72L-91.23 0.96C-92.91 2.48 -95.01 3.24 -97.53 3.24C-99.01 3.24 -100.57 3.04 -102.21 2.64L-102.99 3.42L-103.29 10.74C-101.05 11.42 -99.09 11.76 -97.41 11.76C-94.33 11.76 -91.56 10.68 -89.1 8.52C-86.64 6.36 -84.15 2.84 -81.63 -2.04L-74.79 -14.94C-73.91 -16.5 -73.26 -17.98 -72.84 -19.38C-72.42 -20.78 -72.21 -22.22 -72.21 -23.7Z M-62.01 -21.24L-64.89 0.24L-56.31 -0.36L-56.01 -6.84L-53.25 -28.26L-61.77 -27.72ZM-46.65 -15.3L-37.29 -28.02L-46.35 -28.02L-48.03 -24.96L-54.87 -15.3L-54.93 -14.76C-53.29 -9.96 -51.35 -5.04 -49.11 0L-48.15 0.66C-45.59 0.42 -42.91 0.02 -40.11 -0.54L-39.99 -1.38C-42.31 -5.7 -44.53 -10.34 -46.65 -15.3Z M-15.45 -28.62L-16.29 -28.68C-19.45 -28.52 -22.2 -27.66 -24.54 -26.1C-26.88 -24.54 -28.68 -22.4 -29.94 -19.68C-31.2 -16.96 -31.83 -13.84 -31.83 -10.32C-31.83 -4.28 -29.09 -0.66 -23.61 0.54L-22.77 0.66C-17.97 0.34 -14.19 -1.49 -11.43 -4.83C-8.67 -8.17 -7.29 -12.66 -7.29 -18.3C-7.29 -21.22 -8 -23.53 -9.42 -25.23C-10.84 -26.93 -12.85 -28.06 -15.45 -28.62ZM-22.38 -19.14C-21.56 -21.02 -20.09 -21.96 -17.97 -21.96C-17.09 -21.96 -16.48 -21.65 -16.14 -21.03C-15.8 -20.41 -15.63 -19.32 -15.63 -17.76C-15.63 -13.64 -16.04 -10.63 -16.86 -8.73C-17.68 -6.83 -19.11 -5.88 -21.15 -5.88C-22.07 -5.88 -22.71 -6.2 -23.07 -6.84C-23.43 -7.48 -23.61 -8.58 -23.61 -10.14C-23.61 -14.26 -23.2 -17.26 -22.38 -19.14Z M29.85 -36.06C27.73 -37.86 24.79 -38.76 21.03 -38.76L5.67 -38.7L2.79 -11.46L0.87 0L10.41 0L11.49 -11.88L15.33 -11.88C18.85 -11.88 21.95 -12.58 24.63 -13.98C27.31 -15.38 29.38 -17.32 30.84 -19.8C32.3 -22.28 33.03 -25.12 33.03 -28.32C33.03 -31.68 31.97 -34.26 29.85 -36.06ZM22.95 -26.82C22.95 -22.62 21.19 -19.92 17.67 -18.72L12.51 -18.96L14.31 -31.74L17.61 -31.92C19.49 -31.84 20.85 -31.39 21.69 -30.57C22.53 -29.75 22.95 -28.5 22.95 -26.82Z M67.05 -23.7C67.05 -24.94 66.71 -26.52 66.03 -28.44L58.17 -27.42L57.75 -26.52C58.43 -25.52 58.77 -24.28 58.77 -22.8C58.77 -20.84 58.21 -18.66 57.09 -16.26L53.91 -9.24L53.01 -9.24L50.97 -23.04L50.49 -28.32L41.85 -27.72L48.03 0.96C46.35 2.48 44.25 3.24 41.73 3.24C40.25 3.24 38.69 3.04 37.05 2.64L36.27 3.42L35.97 10.74C38.21 11.42 40.17 11.76 41.85 11.76C44.93 11.76 47.7 10.68 50.16 8.52C52.62 6.36 55.11 2.84 57.63 -2.04L64.47 -14.94C65.35 -16.5 66 -17.98 66.42 -19.38C66.84 -20.78 67.05 -22.22 67.05 -23.7Z M97.92 -24.21C96.82 -25.71 95.05 -26.78 92.61 -27.42L91.41 -27.42C89.09 -25.22 86.77 -22.24 84.45 -18.48L83.85 -18.48L84.21 -20.94C85.09 -27.46 87.51 -31.16 91.47 -32.04L97.11 -33.18C98.03 -34.34 98.82 -35.55 99.48 -36.81C100.14 -38.07 100.77 -39.56 101.37 -41.28L98.73 -43.08C98.01 -42.44 97.4 -41.97 96.9 -41.67C96.4 -41.37 95.69 -41 94.77 -40.56L89.13 -38.1C84.57 -36.22 81.05 -32.93 78.57 -28.23C76.09 -23.53 74.85 -17.9 74.85 -11.34C74.85 -7.58 75.73 -4.67 77.49 -2.61C79.25 -0.55 81.73 0.48 84.93 0.48C87.81 0.44 90.36 -0.35 92.58 -1.89C94.8 -3.43 96.52 -5.58 97.74 -8.34C98.96 -11.1 99.57 -14.28 99.57 -17.88C99.57 -20.6 99.02 -22.71 97.92 -24.21ZM90.15 -7.95C89.11 -6.29 87.75 -5.46 86.07 -5.46C85.11 -5.46 84.36 -5.74 83.82 -6.3C83.28 -6.86 82.93 -7.76 82.77 -9C84.13 -11.96 85.55 -14.5 87.03 -16.62C88.51 -18.74 89.59 -19.8 90.27 -19.8C90.71 -19.8 91.06 -19.32 91.32 -18.36C91.58 -17.4 91.71 -16.1 91.71 -14.46C91.71 -11.78 91.19 -9.61 90.15 -7.95Z M110.85 -21.24L107.97 0.24L116.55 -0.36L116.85 -6.84L119.61 -28.26L111.09 -27.72ZM126.21 -15.3L135.57 -28.02L126.51 -28.02L124.83 -24.96L117.99 -15.3L117.93 -14.76C119.57 -9.96 121.51 -5.04 123.75 0L124.71 0.66C127.27 0.42 129.95 0.02 132.75 -0.54L132.87 -1.38C130.55 -5.7 128.33 -10.34 126.21 -15.3Z M167.25 -28.26L166.65 -28.68L161.37 -27.3L156.21 -28.44L155.85 -28.44C152.73 -27.56 150.09 -26.11 147.93 -24.09C145.77 -22.07 144.16 -19.76 143.1 -17.16C142.04 -14.56 141.51 -11.94 141.51 -9.3C141.51 -6.74 142.04 -4.65 143.1 -3.03C144.16 -1.41 145.97 -0.2 148.53 0.6L149.73 0.6C151.93 -1.8 153.95 -4.7 155.79 -8.1L156.63 -8.1L155.49 0.24L164.13 -0.36L164.37 -6.84ZM153.87 -10.74C152.59 -8.7 151.61 -7.68 150.93 -7.68C149.97 -7.68 149.49 -9.34 149.49 -12.66C149.49 -15.5 149.92 -17.76 150.78 -19.44C151.64 -21.12 152.85 -21.96 154.41 -21.96L158.37 -20.76L158.19 -19.56C156.59 -15.72 155.15 -12.78 153.87 -10.74Z"></path></g></g></svg>